<?xml version="1.0" encoding="UTF-8"?>
<svg width="1200pt" height="1200pt" version="1.1" viewBox="0 0 1200 1200" xmlns="http://www.w3.org/2000/svg">
 <path d="m864.88 485.42 28.762-28.742 12.375 12.355c4.7383 4.7344 11.645 6.582 18.117 4.8477 6.4688-1.7383 11.523-6.793 13.254-13.266 1.7344-6.4727-0.12109-13.379-4.8594-18.113l-51.281-51.227c-4.7617-4.5977-11.598-6.3438-17.984-4.5938-6.3828 1.75-11.375 6.7383-13.125 13.125-1.75 6.3867-0.003906 13.219 4.5977 17.984l12.355 12.355-29.605 29.625c-55.871-46.254-125.12-73.344-197.55-77.27v-54.242c-0.11719-1.2734-0.35938-2.5312-0.73047-3.75h48.074c4.2852 0 8.3984-1.7031 11.43-4.7344s4.7344-7.1445 4.7344-11.43v-25.594c0-4.2852-1.7031-8.3984-4.7344-11.43s-7.1445-4.7344-11.43-4.7344h-132.28c-4.2852 0-8.3984 1.7031-11.43 4.7344s-4.7344 7.1445-4.7344 11.43v25.648c0 4.2891 1.7031 8.3984 4.7344 11.43s7.1445 4.7344 11.43 4.7344h48.094c-0.37891 1.2227-0.62891 2.4766-0.75 3.75v54.188c-72.438 3.9141-141.7 30.996-197.59 77.25l-29.645-29.625 12.375-12.375c4.5977-4.7617 6.3477-11.598 4.5938-17.984-1.75-6.3828-6.7383-11.375-13.125-13.125-6.3828-1.75-13.219-0.003906-17.98 4.5977l-51.207 51.262c-4.7383 4.7383-6.5859 11.645-4.8477 18.117 1.7344 6.4688 6.793 11.523 13.266 13.254 6.4727 1.7344 13.375-0.12109 18.113-4.8594l12.355-12.355 28.801 28.781c-62.195 64.199-96.551 150.34-95.605 239.73 0.94531 89.383 37.113 174.78 100.65 237.65 63.539 62.871 149.32 98.133 238.7 98.133s175.16-35.262 238.7-98.133c63.539-62.871 99.707-148.27 100.65-237.65 0.94531-89.383-33.41-175.53-95.605-239.73zm-518.2 133.56c7.3086-19.82 16.805-38.762 28.312-56.477 2.5508-4.4688 6.8242-7.6953 11.82-8.918 4.9961-1.2266 10.277-0.34766 14.605 2.4375 4.3281 2.7812 7.3242 7.2188 8.2812 12.273 0.96094 5.0547-0.19922 10.281-3.207 14.457-9.9141 15.547-18.207 32.07-24.75 49.312-1.3281 3.5586-3.707 6.6289-6.8242 8.8047-3.1133 2.1797-6.8125 3.3555-10.613 3.3828-2.2344 0.007812-4.457-0.37109-6.5625-1.125-4.6523-1.7578-8.4258-5.2773-10.496-9.8008-2.0703-4.5234-2.2734-9.6797-0.56641-14.348zm-17.625 124.5c-0.5625-7.3125-0.75-14.625-0.75-22.125-0.003906-13.738 0.9375-27.457 2.8125-41.062 0.61719-4.9922 3.2148-9.5273 7.207-12.586 3.9922-3.0547 9.0469-4.3828 14.027-3.6758 4.9805 0.70312 9.4648 3.3789 12.453 7.4219 2.9883 4.0469 4.2266 9.1211 3.4375 14.09-1.6562 11.863-2.4727 23.832-2.4375 35.812 0 6.5625 0.1875 12.938 0.5625 19.312 0.40625 4.9531-1.1875 9.8672-4.4297 13.637-3.2422 3.7695-7.8594 6.0859-12.82 6.4258h-1.3125c-4.7227 0.011719-9.2773-1.7539-12.754-4.9531-3.4766-3.1992-5.6172-7.5898-5.9961-12.297zm61.5 127.5c-2.7266 1.6055-5.8359 2.4492-9 2.4375-3.3516 0.003907-6.6406-0.87891-9.5391-2.5586-2.8984-1.6797-5.3008-4.0977-6.9609-7.0039-10.297-18.48-18.531-38.035-24.562-58.312-1.4375-4.75-0.91797-9.875 1.4414-14.242 2.3594-4.3633 6.3633-7.6094 11.121-9.0078 4.7734-1.457 9.9336-0.95312 14.332 1.4062 4.3984 2.3594 7.6758 6.3711 9.1055 11.156 5.207 17.621 12.379 34.602 21.375 50.625 2.4727 4.3359 3.0898 9.4883 1.7109 14.289-1.375 4.7969-4.6289 8.8398-9.0234 11.211zm230.62 143.25c-73.59 0.17188-144.52-27.492-198.56-77.438-7.3125-6.75-14.25-13.875-21-21.375-4.4531-5.0273-5.8906-12.043-3.7656-18.414 2.1211-6.3711 7.4844-11.125 14.062-12.469 6.5781-1.3477 13.375 0.91797 17.828 5.9453 5.7891 6.5703 11.922 12.828 18.375 18.75 40.91 37.68 93.004 60.973 148.37 66.344 55.359 5.3672 110.96-7.4805 158.35-36.598 47.391-29.117 83.98-72.906 104.21-124.72 20.23-51.809 22.992-108.81 7.8672-162.33-15.121-53.523-47.305-100.65-91.656-134.21-44.355-33.562-98.449-51.727-154.07-51.734-58.297-0.26953-114.88 19.676-160.12 56.438-6.75 5.4375-13.312 11.25-19.688 17.438-3.5117 3.5117-8.2891 5.4688-13.258 5.4336s-9.7148-2.0586-13.18-5.6211c-3.4688-3.5391-5.3945-8.3047-5.3594-13.258s2.0312-9.6914 5.5469-13.18c7.125-7.125 14.625-13.688 22.312-20.062 48.824-39.312 108.97-61.922 171.59-64.516 62.629-2.5898 124.44 14.98 176.34 50.125 51.902 35.145 91.164 86.012 112.01 145.12 20.848 59.113 22.18 123.36 3.8047 183.28-18.375 59.93-55.488 112.38-105.89 149.65-50.398 37.27-111.43 57.387-174.11 57.398zm-66.562-303c2.7383-17.617 12.301-33.449 26.625-44.062 17.375-12.758 39.809-16.422 60.336-9.8477 20.527 6.5742 36.664 22.586 43.395 43.062 6.7305 20.477 3.2422 42.941-9.3828 60.41-12.625 17.473-32.855 27.836-54.41 27.875-3.3906 0.027344-6.7773-0.22266-10.125-0.75-11.223-1.8086-21.84-6.3125-30.938-13.125l-125.25 92.438c-3.2812 2.3438-7.2188 3.5898-11.25 3.5625-5.2578-0.054687-10.254-2.3125-13.77-6.2266-3.5117-3.9141-5.2188-9.125-4.7031-14.359 0.51172-5.2344 3.2031-10.012 7.4102-13.164l125.44-92.438c-3.9375-10.66-5.0977-22.145-3.375-33.375zm36.75 10.125c0.03125-1.5078 0.15625-3.0117 0.375-4.5 1.2031-7.7578 5.4531-14.711 11.812-19.312 5.0586-3.8555 11.266-5.9023 17.625-5.8125 1.5039-0.03125 3.0039 0.03125 4.5 0.1875 7.7812 1.2734 14.77 5.5039 19.5 11.812 5.6523 7.6992 7.2695 17.637 4.3516 26.73-2.9219 9.0938-10.02 16.238-19.098 19.211-9.0742 2.9727-19.027 1.4141-26.758-4.1914-7.7344-5.6055-12.309-14.578-12.309-24.125zm-290.89 223.65v94.125c0 6.6992-3.5742 12.887-9.375 16.238-5.8008 3.3477-12.949 3.3477-18.75 0-5.8008-3.3516-9.375-9.5391-9.375-16.238v-94.125c0-6.6992 3.5742-12.887 9.375-16.238 5.8008-3.3477 12.949-3.3477 18.75 0 5.8008 3.3516 9.375 9.5391 9.375 16.238zm747.64-261.34v227.92c0 6.6992-3.5742 12.891-9.375 16.238-5.8008 3.3516-12.949 3.3516-18.75 0-5.8008-3.3477-9.375-9.5391-9.375-16.238v-227.92c0-6.6992 3.5742-12.891 9.375-16.238 5.8008-3.3516 12.949-3.3516 18.75 0 5.8008 3.3477 9.375 9.5391 9.375 16.238zm0-93.281v30.883-0.003906c0 6.6992-3.5742 12.891-9.375 16.238-5.8008 3.3516-12.949 3.3516-18.75 0-5.8008-3.3477-9.375-9.5391-9.375-16.238v-30.879c0-6.6992 3.5742-12.891 9.375-16.238 5.8008-3.3516 12.949-3.3516 18.75 0 5.8008 3.3477 9.375 9.5391 9.375 16.238zm-628.03-323.96v-108.39c0-6.6953 3.5742-12.887 9.375-16.238 5.8008-3.3477 12.949-3.3477 18.75 0 5.8008 3.3516 9.375 9.543 9.375 16.238v108.39c0 6.6992-3.5742 12.891-9.375 16.238-5.8008 3.3516-12.949 3.3516-18.75 0-5.8008-3.3477-9.375-9.5391-9.375-16.238zm420 58.895v-19.5c0-6.6992 3.5742-12.887 9.375-16.238 5.8008-3.3477 12.949-3.3477 18.75 0 5.8008 3.3516 9.375 9.5391 9.375 16.238v19.5c0 6.6992-3.5742 12.887-9.375 16.238-5.8008 3.3477-12.949 3.3477-18.75 0-5.8008-3.3516-9.375-9.5391-9.375-16.238zm0-81.824v-49.855c0-6.6992 3.5742-12.891 9.375-16.238 5.8008-3.3516 12.949-3.3516 18.75 0 5.8008 3.3477 9.375 9.5391 9.375 16.238v49.855c0 6.6992-3.5742 12.887-9.375 16.238-5.8008 3.3477-12.949 3.3477-18.75 0-5.8008-3.3516-9.375-9.5391-9.375-16.238zm-650.72 679.52v53.867c0 6.6992-3.5742 12.887-9.375 16.238-5.8008 3.3477-12.949 3.3477-18.75 0-5.8008-3.3516-9.375-9.5391-9.375-16.238v-53.867c0-6.6992 3.5742-12.891 9.375-16.238 5.8008-3.3516 12.949-3.3516 18.75 0 5.8008 3.3477 9.375 9.5391 9.375 16.238zm0-201.6v129.96c0 6.6992-3.5742 12.887-9.375 16.238-5.8008 3.3477-12.949 3.3477-18.75 0-5.8008-3.3516-9.375-9.5391-9.375-16.238v-129.96c0-6.6992 3.5742-12.887 9.375-16.238 5.8008-3.3477 12.949-3.3477 18.75 0 5.8008 3.3516 9.375 9.5391 9.375 16.238z"/>
</svg>
